/* XPM */
static char *coll_0[] = {
/* columns rows colors chars-per-pixel */
"32 32 7 1 ",
"  c #000000",
". c #ffff00",
"X c #111111",
"X c #111111",
"X c #111111",
"X c #111111",
"X c #111111",
/* pixels */
"                                ",
"                                ",
"                                ",
"           ..........           ",
"         ..............         ",
"       ..................       ",
"      ....................      ",
"     ......................     ",
"     ......................     ",
"    ........................    ",
"    ........................    ",
"       ......................   ",
"           ..................   ",
"              ...............   ",
"                 ............   ",
"                    .........   ",
"                    .........   ",
"                 ............   ",
"              ...............   ",
"           ..................   ",
"       ......................   ",
"    ........................    ",
"    ........................    ",
"     ......................     ",
"     ......................     ",
"      ....................      ",
"       ..................       ",
"         ..............         ",
"           ..........           ",
"                                ",
"                                ",
"                                "
};
