/* XPM */
static char *coll_0[] = {
/* columns rows colors chars-per-pixel */
"32 32 2 1 ",
"  c #000000",
". c #ffff00",
/* pixels */
"                                ",
"                                ",
"                                ",
"           ..........           ",
"         ..............         ",
"       ..................       ",
"      ....................      ",
"      .....................     ",
"       ....................     ",
"         ...................    ",
"           .................    ",
"             ................   ",
"               ..............   ",
"                 ............   ",
"                   ..........   ",
"                     ........   ",
"                     ........   ",
"                   ..........   ",
"                 ............   ",
"               ..............   ",
"             ................   ",
"           .................    ",
"         ...................    ",
"       ....................     ",
"      .....................     ",
"      ....................      ",
"       ..................       ",
"         ..............         ",
"           ..........           ",
"                                ",
"                                ",
"                                "
};
