/* XPM */
static char *sprite_3[] = {
/* columns rows colors chars-per-pixel */
"32 32 2 1 ",
"  c black",
". c #FFFD00",
/* pixels */
"                                ",
"                                ",
"                                ",
"                                ",
"            ........            ",
"          ............          ",
"         ..............         ",
"       ..................       ",
"        .................       ",
"          ................      ",
"           ................     ",
"             ..............     ",
"               .............    ",
"                ............    ",
"                  ..........    ",
"                    ........    ",
"                    ........    ",
"                  ..........    ",
"                ............    ",
"               .............    ",
"             ..............     ",
"           ................     ",
"          ................      ",
"        .................       ",
"       ..................       ",
"         ..............         ",
"          ............          ",
"            ........            ",
"                                ",
"                                ",
"                                ",
"                                "
};
