/* XPM */
static char *_642598b57454f5e9683d6f2f82af8aev2KHEmPKTa39HuL1[] = {
/* columns rows colors chars-per-pixel */
"32 32 8 1 ",
"  c black",
". c #EF8400",
"X c #F19A00",
"o c #FFBA00",
"O c #FFD000",
"+ c #FFDB00",
"@ c #FFF200",
"# c white",
/* pixels */
"                                ",
"                                ",
"                                ",
"                                ",
"                                ",
"                                ",
"                                ",
"                                ",
"             ......             ",
"           XX++++++..           ",
"          X++++++++++.          ",
"         X+++#.....+++.         ",
"         X++#.oooo.X++.         ",
"        X++#.ooooo@XX++.        ",
"        X++.ooooo@OOX++.        ",
"        X++.oooo@OO@X++.        ",
"        X++.ooo@OO@@X++.        ",
"        X++.oo@OO@@@X++.        ",
"        X++..@OO@@@XX++.        ",
"         X++..O@@@XX++.         ",
"         X+++XXXXXX+++.         ",
"          X++++++++++.          ",
"           XX++++++..           ",
"             ......             ",
"                                ",
"                                ",
"                                ",
"                                ",
"                                ",
"                                ",
"                                ",
"                                ",
"                                ",

};
