/* XPM */
static char *enemy[] = {
/* columns rows colors chars-per-pixel */
"31 32 154 2 ",
"   c #161313",
".  c #171414",
"X  c #171515",
"o  c #181515",
"O  c #181616",
"+  c #181716",
"@  c #181717",
"#  c #181817",
"$  c #181818",
"%  c #191818",
"&  c #191918",
"*  c #191919",
"=  c #191A1A",
"-  c #1A1B1A",
";  c #1A1C1C",
":  c #1B1D1D",
">  c #1B1F1F",
",  c #1B2020",
"<  c #1C2020",
"1  c #1C2120",
"2  c #1C2021",
"3  c #1C2121",
"4  c #1D2222",
"5  c #1E2525",
"6  c #1F2728",
"7  c #1F2828",
"8  c #1F2929",
"9  c #202A2A",
"0  c #202B2B",
"q  c #202C2C",
"w  c #212E2E",
"e  c #223030",
"r  c #223131",
"t  c #233232",
"y  c #233333",
"u  c #243434",
"i  c #243535",
"p  c #253838",
"a  c #263939",
"s  c #263A3A",
"d  c #273D3D",
"f  c #283E3E",
"g  c #283E3F",
"h  c #294041",
"j  c #294141",
"k  c #294242",
"l  c #2A4344",
"z  c #2A4444",
"x  c #2B4647",
"c  c #2B4747",
"v  c #2C4748",
"b  c #2C494A",
"n  c #2D4B4C",
"m  c #2D4D4D",
"M  c #2E4D4E",
"N  c #2E4F4F",
"B  c #2F4F50",
"V  c #2F5051",
"C  c #305354",
"Z  c #305454",
"A  c #305455",
"S  c #315556",
"D  c #315758",
"F  c #325859",
"G  c #335A5B",
"H  c #335B5C",
"J  c #345C5D",
"K  c #345D5E",
"L  c #355F60",
"P  c #366161",
"I  c #3B6D6E",
"U  c #3B7071",
"Y  c #3C7273",
"T  c #3E7475",
"R  c #3E7677",
"E  c #3E7778",
"W  c #407A7B",
"Q  c #438284",
"!  c #448688",
"~  c #478D8F",
"^  c #488F91",
"/  c #499091",
"(  c #489092",
")  c #4A9394",
"_  c #4A9496",
"`  c #4B9596",
"'  c #4D9C9E",
"]  c #4E9E9F",
"[  c #50A3A5",
"{  c #50A5A7",
"}  c #51A7A9",
"|  c #52A9AB",
" . c #52AAAB",
".. c #53ACAD",
"X. c #54ADAF",
"o. c #54AEB0",
"O. c #55B1B3",
"+. c #58BABC",
"@. c #59BABC",
"#. c #59BBBD",
"$. c #59BDBF",
"%. c #5ABFC1",
"&. c #5BC1C3",
"*. c #5EC8CA",
"=. c #60CBCD",
"-. c #60CCCF",
";. c #60CDCF",
":. c #60CDD0",
">. c #61CED0",
",. c #60CFD1",
"<. c #63D3D5",
"1. c #63D4D6",
"2. c #65D8DA",
"3. c #65D9DC",
"4. c #65DADC",
"5. c #65DBDD",
"6. c #66DBDE",
"7. c #66DCDE",
"8. c #66DCDF",
"9. c #66DDDF",
"0. c #67DEE1",
"q. c #67E0E3",
"w. c #68E1E4",
"e. c #68E2E4",
"r. c #68E2E5",
"t. c #69E5E7",
"y. c #6AE6E9",
"u. c #6AE8EB",
"i. c #6BE9EB",
"p. c #6BEAED",
"a. c #6CEBEE",
"s. c #6CECEF",
"d. c #6CEDF0",
"f. c #6DF0F3",
"g. c #6EF0F3",
"h. c #6EF1F4",
"j. c #6EF2F5",
"k. c #6EF2F6",
"l. c #6EF3F6",
"z. c #6FF4F7",
"x. c #70F6F9",
"c. c #70F7FA",
"v. c #70F8FB",
"b. c #70F9FC",
"n. c #71F9FC",
"m. c #70F9FD",
"M. c #70FAFD",
"N. c #71FAFD",
"B. c #71FAFE",
"V. c #71FBFE",
"C. c #71FBFF",
"Z. c #71FCFF",
"A. c #72FCFF",
"S. c #72FDFF",
/* pixels */
"* * * * * * * * * * * * * * * * * * * * * * * * * * * * * * * ",
"* * * * * * * * * * * * * O O O O O * * * * * * * * * * * * * ",
"* * * * * * * * * O O * 7 p l c k t 4 O O * * * * * * * * * * ",
"* * * * * * * * O t I } :.w.p.s.y.3.&.^ m > O * * * * * * * * ",
"* * * * * * * 4 R <.c.A.C.C.C.C.C.C.C.C.s...k O * * * * * * * ",
"* * * * * * > ) x.C.v.v.C.C.C.C.v.C.v.v.C.C.3.J * * * * * * * ",
"* * * * * O P h.C.C.v.v.C.C.C.C.C.C.C.C.v.C.C.0.m O * * * * * ",
"* * * * * 4 #.A.C.C.v.v.v.C.C.C.C.C.C.C.C.C.v.A.#.5 * * * * * ",
"* * * * O m s.C.C.C.v.v.v.v.v.C.v.v.v.v.v.v.C.C.h.J O * * * * ",
"* * * * O ! C.C.C.C.v.v.v.v.C.C.v.v.v.v.C.v.C.C.A.' * * * * * ",
"* * * * > +.A.C.C.C.v.v.C.C.C.C.v.v.C.C.C.C.C.C.C.:.0 * * * * ",
"* * * O u 7.C.C.C.C.v.v.C.C.C.C.C.C.C.C.C.C.C.C.C.d.n O * * * ",
"* * * O V d.C.C.C.C.C.C.C.v.v.v.C.C.C.C.C.C.C.C.C.C.E O * * * ",
"* * * X U v.C.C.C.C.C.C.C.C.v.v.C.C.C.C.v.C.C.C.C.A.[ * * * * ",
"* * * O ~ C.v.v.C.C.C.C.v.v.v.v.v.v.v.v.v.v.C.C.C.C.*.5 * * * ",
"* * * * } A.v.v.v.v.C.C.v.v.v.v.v.v.v.v.v.v.C.C.C.C.w.p O * * ",
"* * * , $.A.C.C.v.v.v.C.C.C.v.v.v.v.C.C.C.C.C.C.C.C.h.S O * * ",
"* * * 6 ;.C.C.C.v.v.v.v.C.C.v.C.v.v.C.C.C.C.C.C.C.C.C.Y X * * ",
"* * * t 3.C.C.C.v.v.v.C.C.C.C.C.v.v.v.C.v.v.v.v.v.v.C.^ O * * ",
"* * O p w.C.C.C.v.v.v.C.C.C.C.C.v.v.v.C.v.v.v.v.v.v.A.| * * * ",
"* * O k i.C.v.v.C.C.C.C.v.v.C.C.v.v.v.v.v.v.v.C.C.C.A.%.4 * * ",
"* * O b s.C.v.v.C.C.C.C.v.v.v.C.v.v.v.v.v.v.C.C.C.C.C.:.7 * * ",
"* * X B g.C.v.v.C.C.v.v.v.v.C.C.v.v.C.v.C.C.C.C.C.C.C.3.t * * ",
"* * X C h.C.C.C.C.C.v.v.v.v.C.C.C.v.C.C.C.C.C.C.C.C.C.w.p O * ",
"* * O D h.C.C.C.C.C.C.C.C.C.C.h.C.C.C.C.C.C.C.A.C.C.C.y.f O * ",
"* * X G z.C.C.h.o.w.C.C.C.C.#.G { v.C.C.C.C.;._ 2.C.C.y.f O * ",
"* * O S h.C.C.] 4 Q v.C.C.3.f   7 +.A.C.C.a.C X k #.C.q.i O * ",
"* * O d t.C.X.0 O w *.A.v.W O * X v 0.A.A.| > * O w ^ _ 4 * * ",
"* * * > R Q 0 O * O G 7.O.7 * * * O L 2.<.c O * * O * > * * * ",
"* * * * O O * * * * * p 0 * * * * * * i i * * * * * * * * * * ",
"* * * * * * * * * * * O * * * * * * * O O * * * * * * * * * * ",
"* * * * * * * * * * * * * * * * * * * * * * * * * * * * * * * "
};
