/* XPM */
static char *_642598b57454f5e9683d6f2f82af8aev2KHEmPKTa39HuL1[] = {
/* columns rows colors chars-per-pixel */
"32 32 8 1 ",
"  c black",
". c #EF8400",
"X c #F19A00",
"o c #FFBA00",
"O c #FFD000",
"+ c #FFDB00",
"@ c #FFF200",
"# c white",
/* pixels */
"                                ",
"                                ",
"                                ",
"                                ",
"                                ",
"                                ",
"                                ",
"                                ",
"              ...X              ",
"             ++.+.X             ",
"             ###++X             ",
"             ###.+X             ",
"            +++.X.+X            ",
"            ###.X.+X            ",
"            +++.X.+X            ",
"            +++.X.+X            ",
"            +++.X.+X            ",
"            XXX.+.+X            ",
"            XXX.+.+X            ",
"            ....+.+X            ",
"             XXX.+X             ",
"             +++++X             ",
"             +++++X             ",
"              ...X              ",
"                                ",
"                                ",
"                                ",
"                                ",
"                                ",
"                                ",
"                                ",
"                                "
};
