/* XPM */
static char *_642598b57454f5e9683d6f2f82af8aev2KHEmPKTa39HuL1[] = {
/* columns rows colors chars-per-pixel */
"64 96 8 1 ",
"  c black",
". c #EF8400",
"X c #F19A00",
"o c #FFBA00",
"O c #FFD000",
"+ c #FFDB00",
"@ c #FFF200",
"# c white",
/* pixels */
"                                                                ",
"                                                                ",
"                                                                ",
"                                                                ",
"                                                                ",
"                                                                ",
"                                                                ",
"                                                                ",
"             ......                           XXX.              ",
"           XX++++++..                       XX##....            ",
"          X++++++++++.                      X##++...            ",
"         X+++#.....+++.                    X##XX++...           ",
"         X++#.oooo.X++.                   X##X.oX++...          ",
"        X++#.ooooo@XX++.                  X#X.oooX+...          ",
"        X++.ooooo@OOX++.                  X+X.oooX+...          ",
"        X++.oooo@OO@X++.                  X+X.oo@X+...          ",
"        X++.ooo@OO@@X++.                  X+X.o@OX+...          ",
"        X++.oo@OO@@@X++.                  X+X.@OOX+...          ",
"        X++..@OO@@@XX++.                  X+X.OO@X+...          ",
"         X++..O@@@XX++.                   X++XX@X++...          ",
"         X+++XXXXXX+++.                    X++XX++...           ",
"          X++++++++++.                      X++++...            ",
"           XX++++++..                       XX++....            ",
"             ......                           X...              ",
"                                                                ",
"                                                                ",
"                                                                ",
"                                                                ",
"                                                                ",
"                                                                ",
"                                                                ",
"                                                                ",
"                                                                ",
"                                                                ",
"                                                                ",
"                                                                ",
"                                                                ",
"                                                                ",
"                                                                ",
"                                                                ",
"              X...                            ....              ",
"             X++...                           XXXX              ",
"             X++...                           ####              ",
"             X+.+..                           ####              ",
"            X+.+X...                          @@@@              ",
"            X+.+X...                          ####              ",
"            X+.+X...                          @@@@              ",
"            X+.+X...                          @@@@              ",
"            X+.+X...                          @@@@              ",
"            X+.+X...                          oooo              ",
"            X+.#X...                          oooo              ",
"            X+.#X...                          XXXX              ",
"             X#.+..                           ....              ",
"             X#+...                           XXXX              ",
"             X.+...                           ++++              ",
"              X...                            ....              ",
"                                                                ",
"                                                                ",
"                                                                ",
"                                                                ",
"                                                                ",
"                                                                ",
"                                                                ",
"                                                                ",
"                                                                ",
"                                                                ",
"                                                                ",
"                                                                ",
"                                                                ",
"                                                                ",
"                                                                ",
"                                                                ",
"              ...X                            XX..              ",
"             ++.+.X                         +++.++XX            ",
"             ###++X                         ##.++++X            ",
"             ###.+X                        ##.++XX++X           ",
"            +++.X.+X                      ++.++X@XX++X          ",
"            ###.X.+X                      ##.+X@OO.X+X          ",
"            +++.X.+X                      ++.+XOO@.X+X          ",
"            +++.X.+X                      ++.+XO@o.X+X          ",
"            +++.X.+X                      ++.+X@oo.X+X          ",
"            XXX.+.+X                      XX.+Xooo.X+X          ",
"            XXX.+.+X                      XX.+Xooo.X+X          ",
"            ....+.+X                      ...++Xo.X++X          ",
"             XXX.+X                        XX.++XX++X           ",
"             +++++X                         ...++++X            ",
"             +++++X                         +++.++XX            ",
"              ...X                            .XXX              ",
"                                                                ",
"                                                                ",
"                                                                ",
"                                                                ",
"                                                                ",
"                                                                ",
"                                                                ",
"                                                                "
};
