/* XPM */
static char *purple_1[] = {
/* columns rows colors chars-per-pixel */
"32 32 4 1 ",
"  c black",
". c #0900FF",
"X c #B600F5",
"o c white",
/* pixels */
"                                ",
"                                ",
"                                ",
"                                ",
"             XXXXXX             ",
"           XXXXXXXXXX           ",
"         XXXXXXXXXXXXXX         ",
"        XXXXoooXXXXoooXX        ",
"        XXXoooooXXoooooX        ",
"       XXXXoooooXXoooooXX       ",
"       XXXXoo...XXoo...XX       ",
"      XXXXXoo...XXoo...XXX      ",
"      XXXXXoo...XXoo...XXX      ",
"      XXXXXXoooXXXXoooXXXX      ",
"      XXXXXXXXXXXXXXXXXXXX      ",
"      XXXXXXXXXXXXXXXXXXXX      ",
"      XXXXXXXXXXXXXXXXXXXX      ",
"      XXXXXXXXXXXXXXXXXXXX      ",
"      XXXXXXXXXXXXXXXXXXXX      ",
"      XXXXXXXXXXXXXXXXXXXX      ",
"      XXXXXXXXXXXXXXXXXXXX      ",
"      XXXXX  XXXXXX  XXXXX      ",
"      XXXX    XXXX    XXXX      ",
"       XX      XX      XX       ",
"                                ",
"                                ",
"                                ",
"                                ",
"                                ",
"                                ",
"                                ",
"                                "
};
