/* XPM */
static char *color[] = {
/* columns rows colors chars-per-pixel */
"32 32 24 1 ",
"  c black",
". c red",
"X c #FF0038",
"o c #FF4300",
"O c #FF6500",
"+ c #FF0071",
"@ c #00FF1E",
"# c #3CFF00",
"$ c #69FF00",
"% c #00FF61",
"& c #FF8700",
"* c #ADFF00",
"= c #CEFF00",
"- c #4700FF",
"; c #004BFF",
": c #0078FF",
"> c #FF00B4",
", c #8000FF",
"< c #AC00FF",
"1 c #FF00EC",
"2 c #E500FF",
"3 c #00FFBB",
"4 c #00C7FF",
"5 c cyan",
/* pixels */
"                                ",
" =*$#@%  %3  :;  -,<21>  +X.oO& ",
" =*$#@%  %3  :;  -,<21>  +X.oO& ",
" =*$#@%  %3  :;  -,<21>  +X.oO& ",
" =*$#@%  %3  :;  -,<21>  +X.oO& ",
" =*      %3  :;    <2      .o   ",
" =*      %3  :;    <2      .o   ",
" =*      %3  :;    <2      .o   ",
" =*      %3  :;    <2      .o   ",
" =*      %3  :;    <2      .o   ",
" =*      %3  :;    <2      .o   ",
" =*      %3  :;    <2      .o   ",
" =*      %354:;    <2      .o   ",
" =*      %354:;    <2      .o   ",
" =*        54      <2      .o   ",
" =*$#@     54      <2      .o   ",
" =*$#@     54      <2      .o   ",
" =*        54      <2      .o   ",
" =*      %354:;    <2      .o   ",
" =*      %354:;    <2      .o   ",
" =*      %3  :;    <2      .o   ",
" =*      %3  :;    <2      .o   ",
" =*      %3  :;    <2      .o   ",
" =*      %3  :;    <2      .o   ",
" =*      %3  :;    <2      .o   ",
" =*      %3  :;    <2      .o   ",
" =*      %3  :;    <2      .o   ",
" =*$#@%  %3  :;  -,<21>    .o   ",
" =*$#@%  %3  :;  -,<21>    .o   ",
" =*$#@%  %3  :;  -,<21>    .o   ",
" =*$#@%  %3  :;  -,<21>    .o   ",
"                                "
};
